<?xml version="1.0" encoding="utf-8"?>
<!-- Generator: Adobe Illustrator 28.0.0, SVG Export Plug-In . SVG Version: 6.00 Build 0)  -->
<svg version="1.1" id="Layer_1" xmlns="http://www.w3.org/2000/svg" xmlns:xlink="http://www.w3.org/1999/xlink" x="0px" y="0px"
	 viewBox="0 0 180 180" style="enable-background:new 0 0 180 180;" xml:space="preserve">
<style type="text/css">
	.st0{fill:#FC9600;}
	.st1{fill:#231F20;}
</style>
<g>
	<g>
		<path d="M121.48,68.22c-0.02-3.32,2.81-5.95,6.12-5.68c1.42,0.11,2.62,0.67,3.62,1.68c1.37,1.39,2.72,2.79,4.08,4.19
			c12.07,12.43,24.14,24.86,36.21,37.28c1.19,1.22,1.84,2.65,1.77,4.36c-0.12,3.08-2.5,5.09-4.81,5.4c-1.95,0.26-3.6-0.3-4.97-1.69
			c-1.62-1.64-3.22-3.31-4.83-4.97c-11.66-12.01-23.32-24.01-34.98-36.02c-0.25-0.26-0.51-0.51-0.75-0.78
			C121.98,70.93,121.5,69.67,121.48,68.22z"/>
		<path d="M11.86,62.45c2.23,0.11,3.94,0.99,5.1,2.82c0.17,0.26,0.3,0.54,0.45,0.81c7.03,13.46,14.06,26.93,21.09,40.39
			c0.46,0.87,0.81,1.77,0.87,2.77c0.19,3.1-1.97,5.68-4.85,6.2c-2.5,0.45-5.09-0.78-6.3-3.14c-1.35-2.62-2.73-5.23-4.09-7.85
			C18.41,93.51,12.7,82.57,6.99,71.63c-0.39-0.75-0.73-1.52-0.87-2.37c-0.45-2.63,1.16-5.96,4.69-6.67
			C11.18,62.52,11.56,62.49,11.86,62.45z"/>
		<path d="M121.92,47.44c0-0.07,0-0.15,0.01-0.22c0-0.02,0.02-0.04,0.03-0.07c0.01,0.02,0.02,0.04,0.02,0.06
			c-0.02,0.07-0.04,0.14-0.06,0.21C121.92,47.42,121.92,47.44,121.92,47.44z"/>
		<g>
			<polygon points="64.77,62.64 80.16,62.64 117.28,115.36 102.8,115.36 			"/>
			<polygon class="st0" points="68.6,108.08 121.9,47.36 78.43,115.47 68.6,108.08 			"/>
		</g>
		<polygon points="160.58,62.52 173.96,62.52 173.96,106.19 160.58,92.22 		"/>
		<polygon points="121.86,73.45 121.86,115.49 135.25,115.49 135.25,86.55 		"/>
		<polygon points="33.35,93.43 40.34,106.45 60.53,62.55 48.23,62.55 		"/>
	</g>
	<g>
		<path class="st1" d="M48.63,132.65l-4.59-11.85h1.7l3.08,8.6c0.25,0.69,0.45,1.34,0.62,1.94c0.18-0.65,0.4-1.29,0.64-1.94l3.2-8.6
			h1.6l-4.64,11.85H48.63z"/>
		<path class="st1" d="M68.13,132.65V120.8h1.57v11.85H68.13z"/>
		<path class="st1" d="M83.52,128.84l1.48-0.13c0.07,0.59,0.23,1.08,0.49,1.46c0.26,0.38,0.65,0.69,1.19,0.92
			c0.54,0.23,1.14,0.35,1.82,0.35c0.6,0,1.13-0.09,1.58-0.27c0.46-0.18,0.8-0.42,1.02-0.73c0.22-0.31,0.34-0.65,0.34-1.01
			c0-0.37-0.11-0.7-0.32-0.97c-0.22-0.28-0.57-0.51-1.07-0.7c-0.32-0.12-1.02-0.32-2.11-0.58c-1.09-0.26-1.85-0.51-2.29-0.74
			c-0.57-0.3-0.99-0.66-1.26-1.1c-0.28-0.44-0.42-0.93-0.42-1.47c0-0.6,0.17-1.16,0.51-1.68c0.34-0.52,0.83-0.91,1.49-1.18
			c0.65-0.27,1.38-0.4,2.17-0.4c0.88,0,1.65,0.14,2.32,0.42c0.67,0.28,1.19,0.7,1.55,1.25c0.36,0.55,0.55,1.17,0.58,1.87l-1.5,0.11
			c-0.08-0.75-0.35-1.31-0.82-1.7c-0.47-0.38-1.15-0.57-2.06-0.57c-0.95,0-1.64,0.17-2.07,0.52c-0.43,0.35-0.65,0.77-0.65,1.26
			c0,0.43,0.15,0.78,0.46,1.05c0.3,0.27,1.09,0.56,2.36,0.84c1.27,0.29,2.15,0.54,2.62,0.76c0.69,0.32,1.2,0.72,1.53,1.21
			c0.33,0.49,0.49,1.05,0.49,1.68c0,0.63-0.18,1.22-0.54,1.78c-0.36,0.56-0.88,0.99-1.56,1.3c-0.68,0.31-1.44,0.47-2.28,0.47
			c-1.07,0-1.97-0.16-2.69-0.47c-0.72-0.31-1.29-0.78-1.71-1.41C83.75,130.34,83.54,129.63,83.52,128.84z"/>
		<path class="st1" d="M106.94,132.65V120.8h1.57v11.85H106.94z"/>
		<path class="st1" d="M122.37,126.88c0-1.97,0.53-3.51,1.58-4.62c1.06-1.11,2.42-1.67,4.09-1.67c1.09,0,2.08,0.26,2.96,0.78
			c0.88,0.52,1.55,1.25,2.01,2.19c0.46,0.94,0.69,1.99,0.69,3.18c0,1.2-0.24,2.28-0.73,3.22c-0.49,0.95-1.17,1.67-2.06,2.15
			c-0.89,0.49-1.85,0.73-2.88,0.73c-1.12,0-2.11-0.27-2.99-0.81c-0.88-0.54-1.54-1.27-2-2.21
			C122.6,128.91,122.37,127.92,122.37,126.88z M123.99,126.9c0,1.43,0.38,2.55,1.15,3.37s1.73,1.23,2.89,1.23
			c1.18,0,2.15-0.41,2.91-1.24c0.76-0.83,1.14-2.01,1.14-3.53c0-0.96-0.16-1.81-0.49-2.53c-0.33-0.72-0.8-1.28-1.43-1.67
			c-0.63-0.4-1.33-0.59-2.11-0.59c-1.11,0-2.06,0.38-2.86,1.14C124.39,123.85,123.99,125.12,123.99,126.9z"/>
		<path class="st1" d="M147.29,132.65V120.8h1.61l6.22,9.3v-9.3h1.5v11.85h-1.61l-6.22-9.31v9.31H147.29z"/>
	</g>
</g>
</svg>
